# xmcd CD database file
#
# Track frame offsets:
#       150
#       28168
#       52623
#       74832
#       96735
#       117425
#       131058
#       147514
#       172835
#
# Disc length: 2730 seconds
#
# Revision: 0
# Processed by: cddbd v1.5.2PL0 Copyright (c) Steve Scherf et al.
# Submitted via: jack 3.1.1
#
DISCID=890aa809
DTITLE=Romain Petite - Friends' Affair 1
DYEAR=1900
DGENRE=blues
TTITLE0=Hoochie Coochie Man
TTITLE1=Railroad Song
TTITLE2=Help Me
TTITLE3=Knocking on Heavens Door
TTITLE4=The Key to the Highway
TTITLE5=Heaven Stood Still
TTITLE6=Jambalaya
TTITLE7=Old Black Cadillac Car Blues
TTITLE8=Can't You See
EXTD=
EXTT0=
EXTT1=
EXTT2=
EXTT3=
EXTT4=
EXTT5=
EXTT6=
EXTT7=
EXTT8=
PLAYORDER=
